<?xml version="1.0" encoding="UTF-8" standalone="no"?><!DOCTYPE svg PUBLIC "-//W3C//DTD SVG 1.1//EN" "http://www.w3.org/Graphics/SVG/1.1/DTD/svg11.dtd"><svg width="100%" height="100%" viewBox="0 0 413 94" version="1.1" xmlns="http://www.w3.org/2000/svg" xmlns:xlink="http://www.w3.org/1999/xlink" xml:space="preserve" xmlns:serif="http://www.serif.com/" style="fill-rule:evenodd;clip-rule:evenodd;stroke-linejoin:round;stroke-miterlimit:2;"><g><path d="M0,64.583c-0.045,-3.277 1.719,-6.324 4.583,-7.917c18.75,-12.083 97.5,-56.667 214.583,-56.667c112.083,0 171.25,24.583 187.917,33.333c3.118,1.59 5.064,4.834 5,8.333c-0.064,3.5 -40.833,-12.083 -197.917,-12.083c-157.083,0 -214.167,35 -214.167,35Z" style="fill:#f6002e;fill-rule:nonzero;"/><path d="M0,93.333l0,-28.75c0,0 57.083,-35 214.167,-35c157.083,0 197.917,12.083 197.917,12.083l0,45.833c-32.083,-5.417 -88.333,-10.833 -183.75,-10.833c-118.75,0 -191.25,9.583 -228.333,16.667Z" style="fill:#be0024;fill-rule:nonzero;"/></g></svg>