<?xml version="1.0" encoding="UTF-8" standalone="no"?>
<!DOCTYPE svg PUBLIC "-//W3C//DTD SVG 1.1//EN" "http://www.w3.org/Graphics/SVG/1.1/DTD/svg11.dtd">
<svg width="100%" height="100%" viewBox="0 0 179 105" version="1.1" xmlns="http://www.w3.org/2000/svg" xmlns:xlink="http://www.w3.org/1999/xlink" xml:space="preserve" xmlns:serif="http://www.serif.com/" style="fill-rule:evenodd;clip-rule:evenodd;stroke-linejoin:round;stroke-miterlimit:2;">
    <g>
        <g transform="matrix(1,0,0,1,0.02,0.02)">
            <path d="M124.5,20.6C125.9,18.6 125.7,17.7 125.7,17.7C125.7,17.7 125.9,16.8 124.5,14.8C123.1,12.8 109.5,1.2 108.8,0.8C108.1,0.4 80.3,-1.4 77.4,2.1C74.5,5.6 74.8,17.7 74.8,17.7C74.8,17.7 74.5,29.8 77.4,33.3C80.3,36.8 108.1,35 108.8,34.6C109.5,34.2 123.1,22.6 124.5,20.6Z" style="fill:rgb(246,0,46);fill-rule:nonzero;"/>
        </g>
        <g transform="matrix(1,0,0,1,0.02,0.02)">
            <path d="M124.5,20.6C125.9,18.6 125.7,17.7 125.7,17.7C125.7,17.7 125.9,16.8 124.5,14.8C123.6,13.5 117.6,8.2 113.3,4.5C111.091,8.55 109.922,13.087 109.9,17.7C109.874,22.32 111.045,26.868 113.3,30.9C117.6,27.2 123.6,21.9 124.5,20.6Z" style="fill-opacity:0.25;fill-rule:nonzero;"/>
        </g>
    </g>
    <g>
        <g transform="matrix(1,0,0,1,0.02,0.02)">
            <path d="M20.6,1.3C18.6,-0.1 17.7,0.1 17.7,0.1C17.7,0.1 16.8,-0.1 14.8,1.3C12.8,2.7 1.2,16.3 0.8,17C0.4,17.7 -1.4,45.5 2.1,48.4C5.6,51.3 17.7,51 17.7,51C17.7,51 29.8,51.3 33.3,48.4C36.8,45.5 35,17.7 34.6,17C34.2,16.3 22.6,2.6 20.6,1.3Z" style="fill:rgb(184,15,46);fill-rule:nonzero;"/>
        </g>
        <g transform="matrix(1,0,0,1,0.02,0.02)">
            <path d="M20.6,1.3C18.6,-0.1 17.7,0.1 17.7,0.1C17.7,0.1 16.8,-0.1 14.8,1.3C13.5,2.2 8.2,8.2 4.5,12.5C8.55,14.709 13.087,15.878 17.7,15.9C22.32,15.926 26.868,14.755 30.9,12.5C27.2,8.1 21.9,2.1 20.6,1.3Z" style="fill-opacity:0.25;fill-rule:nonzero;"/>
        </g>
    </g>
    <g>
        <g transform="matrix(1,0,0,1,0.02,0.02)">
            <path d="M52.2,49.8C54.2,51.2 55.1,51 55.1,51C55.1,51 56,51.2 58,49.8C60,48.4 71.6,34.8 72,34.1C72.4,33.4 74.2,5.6 70.7,2.7C67.2,-0.2 55.1,0.1 55.1,0.1C55.1,0.1 43,-0.2 39.5,2.7C36,5.6 37.8,33.4 38.2,34.1C38.6,34.8 50.2,48.4 52.2,49.8Z" style="fill:rgb(246,0,46);fill-rule:nonzero;"/>
        </g>
        <g transform="matrix(1,0,0,1,0.02,0.02)">
            <path d="M52.2,49.8C54.2,51.2 55.1,51 55.1,51C55.1,51 56,51.2 58,49.8C59.3,48.9 64.6,42.9 68.3,38.6C64.25,36.391 59.713,35.222 55.1,35.2C50.48,35.174 45.932,36.345 41.9,38.6C45.6,42.9 50.9,48.9 52.2,49.8Z" style="fill-opacity:0.25;fill-rule:nonzero;"/>
        </g>
    </g>
    <g>
        <g transform="matrix(1,0,0,1,0.02,0.02)">
            <path d="M175.9,2.3C173,-1.2 145.2,0.6 144.5,1C143.8,1.4 130.2,13 128.8,15C127.4,17 127.6,17.9 127.6,17.9C127.6,17.9 127.4,18.8 128.8,20.8C130.2,22.8 143.8,34.4 144.5,34.8C145.2,35.2 173,37 175.9,33.5C178.8,30 178.5,17.9 178.5,17.9C178.5,17.9 178.7,5.8 175.9,2.3Z" style="fill:rgb(246,0,46);fill-rule:nonzero;"/>
        </g>
        <g transform="matrix(1,0,0,1,0.02,0.02)">
            <path d="M140,4.7C135.7,8.4 129.7,13.7 128.8,15C127.4,17 127.6,17.9 127.6,17.9C127.6,17.9 127.4,18.8 128.8,20.8C129.7,22.1 135.7,27.4 140,31.1C142.209,27.05 143.378,22.513 143.4,17.9C143.378,13.287 142.209,8.75 140,4.7Z" style="fill-opacity:0.25;fill-rule:nonzero;"/>
        </g>
    </g>
    <g>
        <g transform="matrix(1,0,0,1,0.02,0.02)">
            <path d="M124.5,73.6C125.9,71.6 125.7,70.7 125.7,70.7C125.7,70.7 125.9,69.8 124.5,67.8C123.1,65.8 109.5,54.2 108.8,53.8C108.1,53.4 80.3,51.6 77.4,55.1C74.5,58.6 74.8,70.7 74.8,70.7C74.8,70.7 74.5,82.8 77.4,86.3C80.3,89.8 108.1,88 108.8,87.6C109.5,87.2 123.1,75.6 124.5,73.6Z" style="fill:rgb(62,216,210);fill-rule:nonzero;"/>
        </g>
        <g transform="matrix(1,0,0,1,0.02,0.02)">
            <path d="M124.5,73.6C125.9,71.6 125.7,70.7 125.7,70.7C125.7,70.7 125.9,69.8 124.5,67.8C123.6,66.5 117.6,61.2 113.3,57.5C111.091,61.55 109.922,66.087 109.9,70.7C109.874,75.32 111.045,79.868 113.3,83.9C117.6,80.2 123.6,74.9 124.5,73.6Z" style="fill:white;fill-opacity:0.25;fill-rule:nonzero;"/>
        </g>
    </g>
    <g>
        <g transform="matrix(1,0,0,1,0.02,0.02)">
            <path d="M20.6,54.3C18.6,52.9 17.7,53.1 17.7,53.1C17.7,53.1 16.8,52.9 14.8,54.3C12.8,55.7 1.2,69.3 0.8,70C0.4,70.7 -1.4,98.5 2.1,101.4C5.6,104.3 17.7,104 17.7,104C17.7,104 29.8,104.3 33.3,101.4C36.8,98.5 35,70.7 34.6,70C34.2,69.3 22.6,55.6 20.6,54.3Z" style="fill:rgb(62,216,210);fill-rule:nonzero;"/>
        </g>
        <g transform="matrix(1,0,0,1,0.02,0.02)">
            <path d="M20.6,54.3C18.6,52.9 17.7,53.1 17.7,53.1C17.7,53.1 16.8,52.9 14.8,54.3C13.5,55.2 8.2,61.2 4.5,65.5C8.55,67.709 13.087,68.878 17.7,68.9C22.32,68.926 26.868,67.755 30.9,65.5C27.2,61.1 21.9,55.1 20.6,54.3Z" style="fill:white;fill-opacity:0.25;fill-rule:nonzero;"/>
        </g>
    </g>
    <g>
        <g transform="matrix(1,0,0,1,0.02,0.02)">
            <path d="M52.2,102.8C54.2,104.2 55.1,104 55.1,104C55.1,104 56,104.2 58,102.8C60,101.4 71.6,87.8 72,87.1C72.4,86.4 74.2,58.6 70.7,55.7C67.2,52.8 55.1,53.1 55.1,53.1C55.1,53.1 43,52.8 39.5,55.7C36,58.6 37.8,86.4 38.2,87.1C38.6,87.8 50.2,101.4 52.2,102.8Z" style="fill:rgb(62,216,210);fill-rule:nonzero;"/>
        </g>
        <g transform="matrix(1,0,0,1,0.02,0.02)">
            <path d="M52.2,102.8C54.2,104.2 55.1,104 55.1,104C55.1,104 56,104.2 58,102.8C59.3,101.9 64.6,95.9 68.3,91.6C64.25,89.391 59.713,88.222 55.1,88.2C50.48,88.174 45.932,89.345 41.9,91.6C45.6,95.9 50.9,101.9 52.2,102.8Z" style="fill:white;fill-opacity:0.25;fill-rule:nonzero;"/>
        </g>
    </g>
    <g>
        <g transform="matrix(1,0,0,1,0.02,0.02)">
            <path d="M175.9,55.2C173,51.7 145.2,53.5 144.5,53.9C143.8,54.3 130.2,65.9 128.8,67.9C127.4,69.9 127.6,70.8 127.6,70.8C127.6,70.8 127.4,71.7 128.8,73.7C130.2,75.7 143.8,87.3 144.5,87.7C145.2,88.1 173,89.9 175.9,86.4C178.8,82.9 178.5,70.8 178.5,70.8C178.5,70.8 178.7,58.7 175.9,55.2Z" style="fill:rgb(62,216,210);fill-rule:nonzero;"/>
        </g>
        <g transform="matrix(1,0,0,1,0.02,0.02)">
            <path d="M140,57.6C135.7,61.3 129.7,66.6 128.8,67.9C127.4,69.9 127.6,70.8 127.6,70.8C127.6,70.8 127.4,71.7 128.8,73.7C129.7,75 135.7,80.3 140,84C144.529,75.793 144.529,65.807 140,57.6Z" style="fill:white;fill-opacity:0.25;fill-rule:nonzero;"/>
        </g>
    </g>
</svg>
