<?xml version="1.0" encoding="UTF-8" standalone="no"?><!DOCTYPE svg PUBLIC "-//W3C//DTD SVG 1.1//EN" "http://www.w3.org/Graphics/SVG/1.1/DTD/svg11.dtd"><svg width="100%" height="100%" viewBox="0 0 934 469" version="1.1" xmlns="http://www.w3.org/2000/svg" xmlns:xlink="http://www.w3.org/1999/xlink" xml:space="preserve" xmlns:serif="http://www.serif.com/" style="fill-rule:evenodd;clip-rule:evenodd;stroke-linejoin:round;stroke-miterlimit:2;"><g><g><path d="M113.75,223.333c-60.116,0 -109.583,-49.468 -109.583,-109.583c-0,-60.116 49.468,-109.583 109.583,-109.583c60.116,-0 109.583,49.468 109.583,109.583c-0.068,60.09 -49.494,109.515 -109.583,109.583Z" style="fill:#2c2c2c;fill-rule:nonzero;"/><path d="M113.75,8.333c57.83,-0 105.417,47.587 105.417,105.417c0,57.83 -47.587,105.417 -105.417,105.417c-57.83,0 -105.417,-47.587 -105.417,-105.417c0.068,-57.804 47.613,-105.348 105.417,-105.417m0,-8.333c-62.401,-0 -113.75,51.349 -113.75,113.75c0,62.401 51.349,113.75 113.75,113.75c62.401,0 113.75,-51.349 113.75,-113.75c-0.091,-62.367 -51.383,-113.659 -113.75,-113.75Z" style="fill:#222;fill-rule:nonzero;"/></g><path d="M173.75,62.083l-8.333,-8.333l-51.667,51.667l-51.667,-51.667l-8.333,8.333l51.667,51.667l-51.667,51.667l8.333,8.333l51.667,-51.667l51.667,51.667l8.333,-8.333l-51.667,-51.667l51.667,-51.667Z" style="fill:#f6002e;fill-rule:nonzero;"/></g><g><g><path d="M349.167,222.917c-0.139,0.001 -0.277,0.001 -0.416,0.001c-60.116,0 -109.583,-49.468 -109.583,-109.583c0,-60.116 49.468,-109.583 109.583,-109.583c60.116,-0 109.583,49.468 109.583,109.583c0,0.139 -0,0.277 -0.001,0.416c-0.294,59.775 -49.391,108.872 -109.167,109.167Z" style="fill:#2c2c2c;fill-rule:nonzero;"/><path d="M349.167,8.75c57.83,-0 105.417,47.587 105.417,105.417c0,57.83 -47.587,105.417 -105.417,105.417c-57.83,0 -105.417,-47.587 -105.417,-105.417c0.068,-57.804 47.613,-105.348 105.417,-105.417m0,-8.333c-0.139,-0.001 -0.277,-0.001 -0.416,-0.001c-62.401,0 -113.75,51.349 -113.75,113.75c0,62.401 51.349,113.75 113.75,113.75c62.401,0 113.75,-51.349 113.75,-113.75c0,-0.139 -0,-0.277 -0.001,-0.416c-0.317,-62.052 -51.281,-113.016 -113.333,-113.333Z" style="fill:#222;fill-rule:nonzero;"/></g><path d="M349.167,35c-43.201,0 -78.75,35.549 -78.75,78.75c0,43.201 35.549,78.75 78.75,78.75c43.201,0 78.75,-35.549 78.75,-78.75c-0.114,-43.158 -35.592,-78.636 -78.75,-78.75Zm0,145.417c-36.572,0 -66.667,-30.094 -66.667,-66.667c0,-36.572 30.094,-66.667 66.667,-66.667c36.572,-0 66.667,30.094 66.667,66.667c0,36.572 -30.094,66.667 -66.667,66.667Z" style="fill:#f6002e;fill-rule:nonzero;"/></g><g><g><path d="M584.583,225.417c-60.116,0 -109.583,-49.468 -109.583,-109.583c0,-60.116 49.468,-109.583 109.583,-109.583c60.116,-0 109.583,49.468 109.583,109.583c-0.068,60.09 -49.494,109.515 -109.583,109.583Z" style="fill:#2c2c2c;fill-rule:nonzero;"/><path d="M584.583,11.25c57.83,-0 105.417,47.587 105.417,105.417c0,57.83 -47.587,105.417 -105.417,105.417c-57.83,0 -105.417,-47.587 -105.417,-105.417c0.068,-57.804 47.613,-105.348 105.417,-105.417m0,-8.333c-62.401,0 -113.75,51.349 -113.75,113.75c0,62.401 51.349,113.75 113.75,113.75c62.401,0 113.75,-51.349 113.75,-113.75c-0.091,-62.367 -51.383,-113.659 -113.75,-113.75Z" style="fill:#222;fill-rule:nonzero;"/></g><path d="M644.167,56.25l-119.167,0l0,119.167l119.167,0l0,-119.167Zm-11.667,107.917l-95.833,0l0,-95.833l95.833,0l0,95.833Z" style="fill:#f6002e;fill-rule:nonzero;"/></g><g><g><path d="M820,228.333c-60.116,-0 -109.583,-49.468 -109.583,-109.583c0,-60.116 49.468,-109.583 109.583,-109.583c60.116,-0 109.583,49.468 109.583,109.583c-0.068,60.09 -49.494,109.515 -109.583,109.583Z" style="fill:#2c2c2c;fill-rule:nonzero;"/><path d="M820,13.75c57.83,-0 105.417,47.587 105.417,105.417c0,57.83 -47.587,105.417 -105.417,105.417c-57.83,0 -105.417,-47.587 -105.417,-105.417c0.068,-57.804 47.613,-105.348 105.417,-105.417m0,-8.333c-62.401,0 -113.75,51.349 -113.75,113.75c0,62.401 51.349,113.75 113.75,113.75c62.401,0 113.75,-51.349 113.75,-113.75c-0.091,-62.367 -51.383,-113.659 -113.75,-113.75Z" style="fill:#222;fill-rule:nonzero;"/></g><path d="M886.667,152.5l-66.667,-115l-66.667,115l-6.667,11.667l146.667,0l-6.667,-11.667Zm-13.75,0l-105.833,0l52.917,-91.25l52.917,91.25Z" style="fill:#f6002e;fill-rule:nonzero;"/></g><g><g><path d="M113.75,464.167c-60.116,0 -109.583,-49.468 -109.583,-109.583c-0,-60.116 49.468,-109.583 109.583,-109.583c60.116,0 109.583,49.468 109.583,109.583c-0.068,60.09 -49.494,109.515 -109.583,109.583Z" style="fill:#d3d3d3;fill-rule:nonzero;"/><path d="M113.75,249.167c57.83,0 105.417,47.587 105.417,105.417c0,57.83 -47.587,105.417 -105.417,105.417c-57.83,0 -105.417,-47.587 -105.417,-105.417c0.068,-57.804 47.613,-105.348 105.417,-105.417m0,-8.333c-62.401,0 -113.75,51.349 -113.75,113.75c0,62.401 51.349,113.75 113.75,113.75c62.401,0 113.75,-51.349 113.75,-113.75c-0.091,-62.367 -51.383,-113.659 -113.75,-113.75Z" style="fill:#ddd;fill-rule:nonzero;"/></g><path d="M173.75,302.917l-8.333,-8.333l-51.667,51.667l-51.667,-51.667l-8.333,8.333l51.667,51.667l-51.667,51.667l8.333,8.333l51.667,-51.667l51.667,51.667l8.333,-8.333l-51.667,-51.667l51.667,-51.667Z" style="fill:#09ffd1;fill-rule:nonzero;"/></g><g><g><path d="M349.167,463.333c-60.116,0 -109.583,-49.468 -109.583,-109.583c0,-60.116 49.468,-109.583 109.583,-109.583c60.116,0 109.583,49.468 109.583,109.583c-0.068,60.09 -49.494,109.515 -109.583,109.583Z" style="fill:#d3d3d3;fill-rule:nonzero;"/><path d="M349.167,249.167c57.83,0 105.417,47.587 105.417,105.417c0,57.83 -47.587,105.417 -105.417,105.417c-57.83,0 -105.417,-47.587 -105.417,-105.417c0.068,-57.804 47.613,-105.348 105.417,-105.417m0,-8.333c-62.401,0 -113.75,51.349 -113.75,113.75c0,62.401 51.349,113.75 113.75,113.75c62.401,0 113.75,-51.349 113.75,-113.75c-0.091,-62.367 -51.383,-113.659 -113.75,-113.75Z" style="fill:#ddd;fill-rule:nonzero;"/></g><path d="M349.167,275.417c-43.201,0 -78.75,35.549 -78.75,78.75c0,43.201 35.549,78.75 78.75,78.75c43.201,0 78.75,-35.549 78.75,-78.75c-0.114,-43.158 -35.592,-78.636 -78.75,-78.75Zm0,145.417c-36.572,0 -66.667,-30.094 -66.667,-66.667c0,-36.572 30.094,-66.667 66.667,-66.667c36.572,0 66.667,30.094 66.667,66.667c0,36.572 -30.094,66.667 -66.667,66.667Z" style="fill:#09ffd1;fill-rule:nonzero;"/></g><g><g><path d="M584.583,463.333c-60.116,0 -109.583,-49.468 -109.583,-109.583c0,-60.116 49.468,-109.583 109.583,-109.583c60.116,0 109.583,49.468 109.583,109.583c-0.068,60.09 -49.494,109.515 -109.583,109.583Z" style="fill:#d3d3d3;fill-rule:nonzero;"/><path d="M584.583,249.167c57.83,0 105.417,47.587 105.417,105.417c0,57.83 -47.587,105.417 -105.417,105.417c-57.83,0 -105.417,-47.587 -105.417,-105.417c0.068,-57.804 47.613,-105.348 105.417,-105.417m0,-8.333c-62.401,0 -113.75,51.349 -113.75,113.75c0,62.401 51.349,113.75 113.75,113.75c62.401,0 113.75,-51.349 113.75,-113.75c-0.091,-62.367 -51.383,-113.659 -113.75,-113.75Z" style="fill:#ddd;fill-rule:nonzero;"/></g><path d="M644.167,294.167l-119.167,0l0,119.167l119.167,0l0,-119.167Zm-11.667,107.917l-95.833,0l0,-95.833l95.833,0l0,95.833Z" style="fill:#09ffd1;fill-rule:nonzero;"/></g><g><g><path d="M820,463.75c-60.116,0 -109.583,-49.468 -109.583,-109.583c0,-60.116 49.468,-109.583 109.583,-109.583c60.116,0 109.583,49.468 109.583,109.583c-0.068,60.09 -49.494,109.515 -109.583,109.583Z" style="fill:#d3d3d3;fill-rule:nonzero;"/><path d="M820,249.167c57.83,0 105.417,47.587 105.417,105.417c0,57.83 -47.587,105.417 -105.417,105.417c-57.83,0 -105.417,-47.587 -105.417,-105.417c0.068,-57.804 47.613,-105.348 105.417,-105.417m0,-8.333c-62.401,0 -113.75,51.349 -113.75,113.75c0,62.401 51.349,113.75 113.75,113.75c62.401,0 113.75,-51.349 113.75,-113.75c-0.091,-62.367 -51.383,-113.659 -113.75,-113.75Z" style="fill:#ddd;fill-rule:nonzero;"/></g><path d="M886.667,387.5l-66.667,-115l-66.667,115l-6.667,11.667l146.667,0l-6.667,-11.667Zm-13.75,0l-105.833,0l52.917,-91.25l52.917,91.25Z" style="fill:#09ffd1;fill-rule:nonzero;"/></g></svg>