<?xml version="1.0" encoding="UTF-8" standalone="no"?>
<!DOCTYPE svg PUBLIC "-//W3C//DTD SVG 1.1//EN" "http://www.w3.org/Graphics/SVG/1.1/DTD/svg11.dtd">
<svg width="100%" height="100%" viewBox="0 0 201 91" version="1.1" xmlns="http://www.w3.org/2000/svg" xmlns:xlink="http://www.w3.org/1999/xlink" xml:space="preserve" xmlns:serif="http://www.serif.com/" style="fill-rule:evenodd;clip-rule:evenodd;stroke-linejoin:round;stroke-miterlimit:2;">
    <g>
        <g>
            <g transform="matrix(1,0,0,1,0.1,0)">
                <path d="M199.9,90.8C199.9,90.8 167.2,87.6 149.3,87.6C131.4,87.6 101,90 101,90C101,90 104.1,45.3 105.8,38C107.5,30.7 113.5,16.7 122.7,10.1C131.9,3.5 134.7,0 145.5,0C156.3,0 170.9,6.4 180.1,21.4C189.3,36.4 199.9,90.8 199.9,90.8Z" style="fill:rgb(250,18,61);fill-rule:nonzero;"/>
            </g>
            <g transform="matrix(1,0,0,1,0.1,0)">
                <path d="M101.5,83.2C101.5,83.2 127.6,78.8 150.5,78.8C173.4,78.8 198.4,83.2 198.4,83.2C199.4,87.9 200,90.8 200,90.8C200,90.8 167.3,87.6 149.4,87.6C131.5,87.6 101.1,90 101.1,90C101.1,90 101.1,87.3 101.5,83.2Z" style="fill:rgb(250,18,61);fill-rule:nonzero;"/>
            </g>
        </g>
        <g>
            <g>
                <g transform="matrix(1,0,0,1,0.1,0)">
                    <path d="M151.5,65.7L148.3,68.3C147.088,69.492 146.372,71.101 146.3,72.8L156.1,72.8L156.1,70.2L149.9,70.2C150.457,69.425 151.173,68.777 152,68.3C152.992,67.727 153.901,67.021 154.7,66.2C155.541,65.308 156.007,64.126 156,62.9C156.047,61.647 155.533,60.437 154.6,59.6C153.624,58.779 152.375,58.351 151.1,58.4C148,58.4 146.4,60.1 146.4,63.4L149.1,63.4C149.1,61.6 149.8,60.7 151.2,60.7C151.264,60.693 151.328,60.69 151.392,60.69C152.395,60.69 153.222,61.516 153.222,62.52C153.222,62.614 153.214,62.707 153.2,62.8C153.121,63.979 152.491,65.055 151.5,65.7Z" style="fill:rgb(96,0,18);fill-rule:nonzero;"/>
                </g>
                <g transform="matrix(1,0,0,1,0.1,0)">
                    <path d="M133.9,67.2L136.9,67.2C138.4,67.2 139.2,67.8 139.3,69.1C139.4,70.4 139.5,71.6 139.6,72.9L142.9,72.9L142.9,72.5C142.4,72.3 142.2,71.8 142.2,71C142.195,70.73 142.228,70.46 142.3,70.2L142.3,69.5C142.458,68.08 141.747,66.697 140.5,66C141.931,65.52 142.848,64.102 142.7,62.6C142.782,61.449 142.296,60.327 141.4,59.6C140.492,58.887 139.353,58.531 138.2,58.6L130.9,58.6L130.9,72.8L133.9,72.8L133.9,67.2ZM133.9,61L137.6,61C139,61 139.7,61.6 139.7,62.9C139.7,64.2 138.9,64.8 137.4,64.8L133.9,64.8L133.9,61Z" style="fill:rgb(96,0,18);fill-rule:nonzero;"/>
                </g>
            </g>
        </g>
    </g>
    <g>
        <g>
            <g transform="matrix(1,0,0,1,0.1,0)">
                <path d="M0,90.8C0,90.8 32.7,87.6 50.6,87.6C68.5,87.6 98.9,90 98.9,90C98.9,90 95.8,45.3 94.1,38C92.4,30.7 86.4,16.7 77.2,10.1C68,3.5 65.2,0 54.4,0C43.6,0 29,6.4 19.8,21.4C10.6,36.4 0,90.8 0,90.8Z" style="fill:rgb(250,18,61);fill-rule:nonzero;"/>
            </g>
            <g transform="matrix(1,0,0,1,0.1,0)">
                <path d="M98.4,83.2C98.4,83.2 72.3,78.8 49.4,78.8C26.5,78.8 1.5,83.2 1.5,83.2C0.5,87.9 -0.1,90.8 -0.1,90.8C-0.1,90.8 32.6,87.6 50.5,87.6C68.4,87.6 98.8,90 98.8,90C98.8,90 98.8,87.3 98.4,83.2Z" style="fill:rgb(250,18,61);fill-rule:nonzero;"/>
            </g>
        </g>
        <g>
            <g>
                <g transform="matrix(1,0,0,1,0.1,0)">
                    <path d="M64.5,65.7L61.3,68.3C60.088,69.492 59.372,71.101 59.3,72.8L69.1,72.8L69.1,70.2L62.9,70.2C63.457,69.425 64.173,68.777 65,68.3C65.992,67.727 66.901,67.021 67.7,66.2C68.541,65.308 69.007,64.126 69,62.9C69.047,61.647 68.533,60.437 67.6,59.6C66.624,58.779 65.375,58.351 64.1,58.4C61,58.4 59.4,60.1 59.4,63.4L62.1,63.4C62.1,61.6 62.8,60.7 64.2,60.7C64.264,60.693 64.328,60.69 64.392,60.69C65.395,60.69 66.222,61.516 66.222,62.52C66.222,62.614 66.214,62.707 66.2,62.8C66.165,63.992 65.523,65.087 64.5,65.7Z" style="fill:rgb(96,0,18);fill-rule:nonzero;"/>
                </g>
                <path d="M56.1,70.2L49,70.2L49,58.5L46,58.5L46,72.8L56.1,72.8L56.1,70.2Z" style="fill:rgb(96,0,18);fill-rule:nonzero;"/>
            </g>
        </g>
    </g>
</svg>
